<?xml version="1.0" encoding="UTF-8" standalone="no"?>
<!DOCTYPE svg PUBLIC "-//W3C//DTD SVG 1.1//EN" "http://www.w3.org/Graphics/SVG/1.1/DTD/svg11.dtd">
<svg width="100%" height="100%" viewBox="0 0 700 316" version="1.1" xmlns="http://www.w3.org/2000/svg" xmlns:xlink="http://www.w3.org/1999/xlink" xml:space="preserve" xmlns:serif="http://www.serif.com/" style="fill-rule:evenodd;clip-rule:evenodd;stroke-linecap:round;stroke-linejoin:round;stroke-miterlimit:1.5;">
    <g id="CityofHendersonville">
        <g transform="matrix(1,0,0,1,14.4588,-15.822)">
            <circle cx="447.248" cy="136.075" r="113.357" style="fill:none;stroke:black;stroke-width:4px;"/>
        </g>
        <path d="M7.714,295.225L7.714,310.094L692.52,310.094L692.52,300.112C690.118,296.407 686.546,294.12 680.519,294.81L670.777,296.681C661.908,298.449 654.161,298.997 648.182,297.626C621.967,294.822 596.393,293.696 572.89,297.984L552.33,299.94C540.893,301.466 529.624,302.042 518.74,300.44L482.756,297.382L466.66,296.691L382.473,296.793C363.739,294.823 345.027,295.028 326.33,296.795C307.347,298.959 289.242,299.22 272.264,297.038C233.157,292.075 194.043,291.805 154.92,299.128C129.69,292.996 103.064,291.67 74.24,297.903C68.741,298.993 63.389,299.132 58.236,297.97C51.828,297.279 45.172,296.201 38.27,294.737C33.514,293.068 27.86,292.777 21.221,293.998L7.714,295.225Z"/>
        <path d="M382.287,282.98L382.287,298.819L466.404,297.341L482.589,283.685L439.406,282.866C437.943,282.841 436.916,282.159 437.025,279.769L437.159,272.431C444.83,261.462 453.315,249.87 463.258,237.162C463.935,236.301 464.703,235.844 465.604,235.98C466.045,236.672 466.056,237.369 465.673,238.071L445.442,268.066C458.446,265.671 467.818,267.879 473.641,274.585C496.984,235.827 498.803,194.696 489.984,147.221C480.909,171.701 473.914,191.843 457.795,216.067C452.363,228.579 445.822,240.403 437.538,251.147C433.435,256.614 431.233,262.015 433.352,266.103L432.655,282.28L382.287,282.98"/>
        <path d="M461.283,202.06C449.984,225.354 432.628,247.394 415.214,271.495L378.129,270.758C400.504,255.226 429.785,235.008 444.721,215.287C450.276,207.95 461.283,202.06 461.283,202.06Z"/>
        <g transform="matrix(1,0,0,1,0,-13)">
            <path d="M217.532,244.849C222.853,242.143 228.328,240.189 234.127,239.813L247.61,237.712C251.373,236.952 254.255,235.232 255.997,232.266C258.421,229.292 260.967,226.603 263.728,224.424L269.291,220.342C275.226,217.854 281.106,215.32 285.306,211.349C294.3,215.696 301.528,220.901 307.457,226.735L308.993,231.361L302.817,234.385C307.556,236.965 312.415,238.481 317.43,238.617C325.228,239.687 331.106,238.398 333.54,232.876L309.287,220.846L293.408,208.711L292.861,204.652C309.702,195.52 321.966,180.612 329.161,159.303C333.803,151.667 338.841,145.942 344.314,142.316C353.537,140.283 362.525,140.775 371.333,143.214C376.057,144.876 380.453,146.598 384.454,148.393C398.738,153.016 413.581,154.14 427.414,151.5L420.073,146.5C414.178,143.602 407.72,140.326 400.687,136.664C396.38,132.134 390.776,130.797 383.607,133.315L363.853,134.117C356.262,134.082 348.704,133.425 341.174,132.219C328.964,131.189 317.374,132.507 306.337,135.924C292.6,139.209 281.112,138.292 272.137,132.677C269.393,123.163 264.964,115.121 253.633,113.118C211.776,116.897 172.857,111.636 135.598,101.266C121.567,98.711 108.929,98.141 99.293,101.848C110.255,103.478 118.323,105.833 122.004,109.288C110.764,108.583 102.877,111.544 97.767,117.541C107.98,116.449 116.745,116.253 121.374,118.619C114.583,120.272 109.781,123.197 107.883,127.981C114.93,126.881 120.644,128.635 124.992,133.309C129.736,136.676 134.742,137.761 140.087,135.889C140.304,138.622 139.276,141.858 137.144,142.848C148.821,145.677 159.889,146.521 169.093,141.284C172.454,148.644 171.592,153.473 166.839,155.971C171.274,157.621 175.684,157.816 180.064,156.357C179.064,168.341 186.12,175.929 199.392,180.126L219.183,195.71C234.733,204.665 244.601,201.116 249.647,186.958C250.319,184.275 252.072,182.359 255.328,181.51C255.704,184.431 254.802,187.716 254.374,191.474C252.147,197.259 249.788,201.875 245.441,205.126C233.717,218.656 224.922,231.837 217.532,244.849"/>
        </g>
    </g>
</svg>
