 <svg version="1.0" xmlns="http://www.w3.org/2000/svg" width="700.000000pt" height="316.000000pt" viewBox="0 0 700.000000 316.000000" preserveAspectRatio="xMidYMid meet">
<metadata>
Created by potrace 1.12, written by Peter Selinger 2001-2015
</metadata>
<g transform="translate(0.000000,316.000000) scale(0.100000,-0.100000)" fill="#000000" stroke="none">
<path d="M4380 3086 c-30 -6 -65 -17 -77 -24 -12 -6 -31 -12 -42 -12 -12 0
-29 -4 -39 -9 -9 -4 -33 -15 -52 -23 -81 -34 -119 -55 -187 -105 -40 -29 -77
-53 -82 -53 -5 0 -11 -7 -15 -15 -3 -8 -11 -15 -18 -15 -7 -1 -25 -19 -40 -40
-15 -22 -33 -40 -40 -41 -11 0 -55 -55 -150 -189 -14 -21 -34 -55 -43 -76 -9
-22 -24 -55 -33 -74 -8 -19 -19 -43 -23 -52 -5 -10 -9 -26 -9 -35 0 -10 -7
-31 -15 -47 -9 -16 -18 -69 -22 -118 -3 -49 -10 -91 -15 -94 -4 -3 -8 -23 -8
-45 0 -36 2 -40 22 -37 20 3 24 13 39 123 25 180 22 169 113 367 56 120 75
146 212 282 103 104 168 146 329 218 105 47 128 54 255 73 120 18 237 18 365
0 124 -17 161 -28 250 -70 39 -18 90 -42 115 -54 25 -11 68 -38 95 -60 28 -22
67 -52 88 -66 20 -14 37 -31 37 -38 0 -8 11 -20 25 -27 14 -7 25 -17 25 -22 0
-5 17 -27 38 -51 57 -63 86 -111 143 -232 49 -105 72 -174 84 -247 2 -18 10
-62 16 -98 12 -71 5 -250 -11 -315 -6 -22 -12 -49 -14 -60 -15 -84 -94 -275
-141 -340 -12 -16 -29 -44 -38 -60 -20 -39 -213 -232 -241 -241 -11 -4 -25
-12 -31 -19 -12 -15 -79 -50 -197 -104 -69 -31 -88 -44 -88 -60 0 -14 6 -21
20 -21 11 0 20 4 20 9 0 5 15 13 33 16 17 4 37 11 42 15 6 5 30 16 55 26 74
29 219 134 310 224 70 70 190 233 211 287 6 15 20 48 31 73 29 63 36 81 43
115 3 17 12 59 20 95 8 36 14 82 15 102 0 20 5 40 10 43 12 8 13 182 1 189 -4
3 -11 36 -15 73 -7 70 -37 197 -49 209 -4 4 -7 16 -7 27 0 11 -6 28 -13 36 -8
9 -22 39 -32 66 -10 28 -36 76 -59 108 -108 152 -175 225 -271 297 -33 25 -74
55 -90 68 -27 20 -55 35 -150 77 -76 33 -166 61 -244 75 -72 13 -392 10 -461
-4z"></path>
<path d="M1000 2270 c-11 -7 0 -10 35 -10 31 0 69 -9 101 -24 66 -31 76 -46
30 -46 -19 0 -38 -4 -41 -10 -3 -5 -16 -10 -27 -10 -25 0 -108 -38 -108 -50 0
-4 33 -8 73 -8 89 -1 135 -15 117 -37 -6 -7 -25 -17 -41 -20 -16 -4 -38 -19
-50 -33 l-21 -27 55 -5 c38 -3 63 -12 79 -27 40 -37 101 -63 147 -63 40 0 43
-2 37 -22 -17 -55 -23 -53 146 -51 152 1 156 1 162 -20 9 -33 7 -76 -4 -96 -8
-16 -4 -19 37 -25 55 -7 73 -20 73 -53 0 -29 33 -96 60 -121 11 -10 49 -33 85
-52 38 -20 102 -68 154 -117 135 -126 218 -152 298 -94 47 34 83 81 83 108 0
11 14 32 30 48 38 37 49 25 43 -48 -7 -81 -38 -149 -101 -215 -55 -57 -252
-349 -252 -372 0 -5 24 -1 53 7 28 8 72 19 97 23 155 30 162 34 249 139 18 23
44 47 57 54 88 47 177 88 192 90 19 1 111 -40 127 -58 113 -121 122 -140 89
-176 -14 -16 -12 -18 28 -24 24 -4 48 -11 54 -17 27 -21 164 9 164 37 0 6 -28
21 -61 33 -33 13 -77 35 -97 49 -48 32 -182 146 -182 154 0 4 -9 9 -19 12 -10
2 -27 17 -37 32 -18 27 -18 29 0 39 11 6 42 34 71 61 28 28 67 64 86 80 20 17
47 46 62 66 29 39 87 148 87 164 0 29 118 216 159 251 52 46 106 67 153 60 23
-4 72 -10 108 -14 36 -5 94 -21 130 -36 110 -47 133 -55 194 -66 73 -12 296
-13 296 -1 0 5 -35 26 -77 46 -43 20 -101 54 -129 76 -27 21 -68 45 -90 54
-21 9 -49 21 -61 27 -17 9 -35 7 -80 -8 -45 -15 -83 -19 -173 -17 -63 1 -203
3 -310 5 -170 2 -203 0 -255 -17 -90 -28 -232 -26 -305 5 -67 29 -76 37 -84
77 -4 18 -20 50 -36 72 -53 72 -52 72 -297 71 -120 0 -238 4 -263 9 -25 6
-116 17 -203 26 -87 8 -166 19 -175 24 -10 5 -39 12 -66 15 -26 3 -52 9 -58
12 -5 4 -62 17 -126 31 -65 13 -134 27 -155 32 -53 12 -299 12 -317 1z"></path>
<path d="M3495 1723 c4 -32 13 -70 21 -85 8 -15 14 -36 14 -48 0 -11 4 -28 9
-38 6 -9 25 -48 43 -87 18 -38 49 -93 70 -122 21 -29 38 -55 38 -59 0 -12 65
-88 124 -146 57 -56 287 -218 308 -218 6 0 30 -10 54 -22 36 -17 46 -19 59 -8
23 19 18 30 -22 46 -67 27 -197 95 -241 126 -63 44 -225 208 -265 270 -20 29
-57 100 -82 158 -26 58 -51 114 -56 125 -5 11 -15 52 -22 90 -11 62 -15 70
-36 73 -23 4 -23 3 -16 -55z"></path>
<path d="M4861 1663 c-12 -42 -31 -96 -42 -119 -10 -24 -19 -47 -19 -53 0 -18
-150 -329 -248 -516 -40 -77 -51 -90 -72 -90 -33 0 -31 8 47 148 65 117 74
146 34 110 -38 -35 -139 -138 -162 -167 -114 -141 -281 -288 -479 -421 -190
-128 -194 -115 33 -115 l196 0 49 73 c27 39 76 110 110 156 34 47 62 90 62 98
0 7 4 13 8 13 5 0 15 11 22 25 15 28 27 31 53 11 16 -12 16 -15 2 -29 -8 -9
-15 -19 -15 -22 0 -4 -17 -35 -37 -69 -67 -108 -73 -128 -73 -240 0 -66 -4
-106 -12 -114 -9 -9 -79 -12 -255 -12 l-243 0 0 -65 0 -65 -167 6 c-93 3 -229
0 -303 -6 -74 -6 -169 -14 -210 -17 -108 -8 -316 -8 -380 0 -406 52 -746 59
-995 22 -60 -9 -126 -18 -145 -19 -19 -2 -46 -6 -60 -10 -14 -4 -38 -2 -54 4
-109 41 -507 57 -661 26 -44 -9 -96 -19 -115 -23 -69 -12 -167 -5 -290 21
-120 26 -130 27 -240 16 -63 -7 -118 -14 -122 -17 -9 -5 -11 -125 -2 -147 6
-15 317 -16 3424 -16 3107 0 3418 1 3424 16 3 9 6 35 6 58 0 34 -6 48 -30 71
-29 27 -31 28 -112 22 -46 -3 -108 -14 -138 -23 -54 -16 -66 -16 -225 0 -328
33 -471 33 -665 0 -19 -3 -80 -9 -135 -14 -55 -5 -143 -14 -196 -20 -71 -8
-121 -8 -190 0 -105 12 -288 29 -364 33 -27 1 -56 6 -62 10 -7 5 -27 4 -45 -1
-32 -9 -95 -8 -104 1 -2 2 31 28 75 57 129 84 136 80 -127 80 -179 0 -232 3
-241 13 -14 18 -7 103 11 125 8 9 50 60 95 112 44 52 97 121 116 152 38 58 54
74 64 64 14 -14 -93 -187 -164 -266 l-45 -50 89 0 c58 0 96 -5 113 -15 14 -8
32 -17 40 -21 8 -4 20 -15 27 -23 10 -14 13 -14 27 4 8 11 16 26 16 33 0 6 5
12 10 12 6 0 10 9 10 19 0 11 4 22 9 25 7 5 28 65 60 171 55 181 88 651 62
880 -15 130 -20 167 -24 171 -2 2 -13 -31 -26 -73z"></path>
</g>
</svg>