 <svg version="1.0" xmlns="http://www.w3.org/2000/svg" width="700.000000pt" height="293.000000pt" viewBox="0 0 700.000000 293.000000" preserveAspectRatio="xMidYMid meet">
<metadata>
Created by potrace 1.12, written by Peter Selinger 2001-2015
</metadata>
<g transform="translate(0.000000,293.000000) scale(0.100000,-0.100000)" fill="#000000" stroke="none">
<path d="M165 2833 c-4 -10 -11 -40 -15 -68 -5 -27 -16 -84 -25 -125 -10 -41
-21 -95 -25 -120 -12 -63 -32 -156 -61 -288 -5 -23 -9 -52 -9 -65 0 -12 -7
-35 -15 -51 -8 -15 -15 -37 -15 -47 0 -18 7 -19 106 -17 l107 3 12 40 c6 22
20 83 30 135 10 52 25 103 33 113 13 15 35 17 173 17 l157 0 11 33 c6 17 12
52 13 77 l3 45 -155 3 c-85 1 -159 7 -164 12 -10 10 10 96 27 118 7 9 59 12
197 12 l188 0 16 68 c8 37 17 78 18 92 l3 25 -301 3 c-280 2 -302 1 -309 -15z"></path>
<path d="M864 2828 c-8 -25 -30 -127 -43 -198 -14 -71 -30 -152 -40 -195 -5
-22 -14 -65 -20 -95 -28 -148 -43 -218 -51 -244 -5 -16 -7 -33 -4 -37 3 -5
133 -9 289 -9 216 0 286 3 292 13 12 18 39 133 35 146 -3 8 -57 11 -177 11
-141 0 -174 3 -178 14 -3 8 0 41 8 73 14 62 52 242 65 308 14 71 39 189 46
213 6 22 6 22 -104 22 -106 0 -111 -1 -118 -22z"></path>
<path d="M1537 2828 c-13 -59 -60 -288 -68 -328 -4 -25 -26 -132 -48 -238 -23
-107 -38 -198 -35 -203 3 -5 145 -9 324 -9 295 0 319 1 324 18 16 57 27 135
19 143 -5 5 -101 10 -213 11 l-205 3 3 50 c1 28 8 62 14 78 l10 27 193 0 c142
0 195 3 203 13 14 17 32 120 22 130 -4 5 -89 8 -187 7 -209 -1 -215 1 -194 73
23 76 6 71 227 69 150 -2 203 0 216 10 10 7 24 40 33 73 27 105 60 95 -309 95
l-324 0 -5 -22z"></path>
<path d="M2330 2842 c0 -4 -7 -39 -15 -77 -44 -205 -138 -673 -139 -690 -1
-20 6 -20 313 -23 186 -1 319 2 324 7 11 11 28 82 30 126 l2 30 -206 3 c-150
2 -210 6 -217 15 -7 8 -7 26 -1 52 5 22 11 52 14 67 l5 28 202 2 202 3 20 68
c10 37 16 70 13 73 -3 3 -88 5 -190 4 -211 -1 -213 0 -202 74 4 25 13 51 21
57 10 8 78 11 217 11 111 -1 208 2 214 6 8 5 43 141 43 168 0 2 -146 4 -325 4
-179 0 -325 -3 -325 -8z"></path>
<path d="M3041 2798 c-6 -29 -12 -71 -14 -93 l-2 -40 110 -5 c90 -4 110 -8
109 -20 -1 -8 -27 -141 -58 -294 -32 -159 -53 -283 -48 -288 5 -5 49 -8 98 -6
l89 3 12 40 c7 22 19 74 28 115 30 141 37 175 45 210 27 113 32 139 37 177 3
23 10 47 17 52 7 6 61 12 121 13 l109 3 8 30 c5 17 13 50 18 75 5 25 12 53 15
63 7 16 -13 17 -338 17 l-346 0 -10 -52z"></path>
<path d="M4097 2818 c-3 -18 -24 -121 -47 -228 -89 -427 -108 -525 -101 -532
3 -4 46 -8 94 -9 106 -2 113 3 126 86 21 135 35 201 44 213 7 9 55 12 178 12
151 0 168 2 172 18 25 94 29 113 24 126 -5 13 -34 16 -164 18 l-158 3 3 50 c6
85 7 85 223 85 188 0 189 0 193 23 2 12 9 46 15 75 21 102 53 92 -293 92
l-303 0 -6 -32z"></path>
<path d="M4805 2841 c-3 -5 -9 -31 -15 -58 -5 -26 -27 -136 -50 -243 -23 -107
-45 -215 -49 -240 -5 -25 -16 -81 -26 -125 -30 -135 -68 -120 297 -123 l317
-2 14 22 c8 13 17 51 21 85 l6 63 -213 2 c-244 3 -232 -2 -202 102 l16 56 194
0 c217 0 206 -4 219 75 4 22 9 48 12 58 5 16 -8 17 -178 17 -101 0 -189 4
-197 9 -16 11 -11 105 8 124 8 8 71 10 214 9 111 -2 208 1 215 6 10 7 38 120
42 170 0 7 -640 1 -645 -7z"></path>
<path d="M5596 2842 c-4 -6 -67 -302 -86 -407 -4 -22 -15 -76 -25 -120 -9 -44
-22 -102 -27 -130 -6 -27 -11 -69 -12 -93 l-1 -43 309 1 c171 0 312 3 315 5 9
10 30 80 37 122 l6 43 -213 2 -214 3 3 60 c6 100 -6 95 217 95 l195 0 14 34
c8 19 16 52 18 73 l3 38 -185 3 c-225 3 -218 -1 -194 119 4 22 6 23 222 25
l217 3 16 50 c9 28 18 67 22 88 l6 37 -319 0 c-175 0 -321 -3 -324 -8z"></path>
<path d="M6296 2763 c-9 -47 -13 -90 -9 -94 5 -5 55 -10 113 -11 l105 -3 -2
-25 c-1 -14 -7 -47 -13 -75 -21 -102 -53 -261 -60 -305 -5 -25 -15 -76 -24
-113 -9 -38 -14 -73 -10 -78 8 -14 180 -11 191 4 5 6 18 48 27 92 9 44 21 98
26 120 12 54 39 179 52 240 6 28 16 70 22 95 l12 45 112 3 c125 3 125 3 135
82 3 24 11 46 16 48 6 2 11 17 11 33 l0 29 -343 0 -344 0 -17 -87z"></path>
<path d="M5140 1898 c0 -23 -88 -125 -121 -142 -18 -9 -56 -16 -85 -16 -29 0
-126 -6 -216 -14 -90 -8 -233 -19 -318 -25 -85 -6 -245 -18 -355 -26 -110 -8
-276 -19 -370 -25 -93 -6 -207 -13 -252 -16 -59 -4 -83 -10 -83 -19 0 -21 18
-22 155 -14 72 4 281 13 465 19 184 5 378 12 430 15 286 14 520 15 520 3 0 -7
-19 -33 -43 -58 -23 -25 -120 -129 -215 -231 -187 -202 -247 -248 -279 -216
-15 15 -15 19 2 59 11 24 36 70 57 104 21 34 38 67 38 74 0 6 -11 26 -25 42
-23 27 -25 36 -19 77 18 115 5 115 -134 6 -142 -110 -217 -155 -259 -155 -32
0 -33 2 -33 39 0 61 -32 74 -143 55 -41 -6 -239 -127 -363 -221 -42 -32 -83
-62 -90 -68 -9 -6 -18 -5 -26 3 -10 10 -10 19 5 43 26 47 22 80 -16 117 -27
26 -41 32 -79 32 -44 0 -121 -33 -190 -81 -18 -13 -43 -19 -81 -19 -48 0 -58
-4 -76 -25 -16 -21 -30 -27 -78 -30 -67 -5 -73 -2 -101 44 -31 51 -120 140
-178 177 -80 51 -165 76 -404 118 -106 18 -234 36 -280 39 -27 2 -36 7 -38 24
-2 14 3 23 15 27 31 10 399 103 528 135 40 9 211 34 360 51 44 5 130 16 190
25 61 8 127 15 148 15 20 0 37 5 37 10 0 13 -185 13 -299 0 -364 -41 -475 -56
-591 -79 -30 -6 -80 -16 -110 -22 -30 -6 -91 -20 -135 -31 -44 -11 -98 -24
-120 -30 -22 -5 -96 -28 -165 -51 -109 -37 -125 -45 -128 -65 -5 -31 23 -60
62 -67 17 -2 110 -9 206 -15 96 -7 236 -15 310 -20 172 -11 251 -29 375 -85
79 -37 185 -141 185 -182 l0 -29 -157 -13 c-87 -7 -225 -17 -308 -22 -355 -19
-491 -35 -640 -74 -33 -9 -71 -18 -85 -21 -14 -3 -34 -9 -45 -14 -11 -5 -60
-22 -110 -39 -157 -53 -215 -77 -350 -146 -234 -119 -355 -232 -355 -330 0
-39 31 -98 71 -137 94 -91 238 -116 479 -83 129 17 344 72 455 115 11 4 40 15
65 25 77 30 84 33 125 50 335 140 663 331 782 457 57 61 123 159 123 183 0 12
12 15 53 15 30 0 56 -3 60 -6 5 -6 -69 -119 -274 -416 -41 -59 -101 -147 -134
-195 -33 -49 -95 -138 -137 -199 -43 -62 -78 -118 -78 -126 0 -21 39 -98 50
-98 14 0 65 72 310 438 161 241 227 332 241 332 10 0 28 -9 39 -20 33 -33 85
-26 200 27 76 35 164 99 233 172 33 34 63 61 67 61 15 0 22 -38 11 -59 -18
-32 -12 -74 13 -106 22 -28 29 -30 88 -30 54 1 74 6 137 40 40 22 109 73 152
113 60 54 86 72 108 72 19 0 59 22 122 66 118 84 276 211 282 227 3 9 9 9 23
1 13 -8 20 -25 22 -57 3 -45 2 -48 -80 -135 -93 -99 -135 -168 -144 -236 -11
-79 23 -74 185 26 51 33 101 58 109 56 9 -2 21 -20 27 -40 13 -46 42 -78 70
-78 20 0 54 11 125 42 82 35 188 98 365 218 33 22 85 57 115 77 30 20 88 62
129 92 120 91 110 85 117 68 13 -34 -113 -177 -156 -177 -23 0 -131 -58 -195
-105 -85 -62 -135 -118 -135 -149 0 -45 73 -86 155 -86 135 0 253 110 333 311
9 24 18 27 119 43 59 9 136 21 169 26 34 6 81 10 106 10 24 0 69 4 99 10 30 5
96 11 148 13 57 2 96 8 98 14 2 6 0 13 -4 16 -17 10 -649 -33 -670 -46 -5 -3
-15 -2 -22 3 -20 11 2 126 40 208 37 83 26 102 -29 51 -129 -123 -232 -190
-537 -349 -49 -26 -116 -62 -148 -79 -106 -59 -107 -28 -3 119 61 86 235 309
266 340 14 14 46 19 161 25 134 7 144 8 162 31 12 16 29 24 48 24 22 0 29 5
29 20 0 19 -7 20 -119 20 -66 0 -122 3 -124 8 -3 4 3 25 14 46 18 38 18 39 -2
67 -21 30 -49 39 -49 17z m-1334 -604 c-17 -44 -17 -66 -2 -89 18 -27 14 -45
-9 -45 -7 0 -40 -21 -74 -46 -44 -33 -68 -45 -88 -42 -25 3 -28 8 -31 44 -3
40 -2 41 90 117 90 75 127 94 114 61z m-476 -27 c0 -54 -134 -208 -216 -247
-50 -25 -66 -25 -88 -1 -14 16 -15 25 -6 63 15 57 70 115 147 153 121 61 163
69 163 32z m1860 -108 c0 -16 -49 -82 -77 -103 -26 -19 -53 -15 -53 7 0 21 90
107 111 107 11 0 19 -5 19 -11z m-2478 -44 c-4 -33 -197 -210 -311 -286 -114
-77 -348 -195 -501 -254 -52 -20 -104 -40 -115 -44 -134 -55 -265 -95 -418
-125 -105 -22 -295 -20 -362 2 -115 39 -175 95 -156 146 40 104 293 258 591
360 58 19 132 43 165 52 142 38 172 46 210 54 22 5 72 16 110 25 39 10 93 21
120 25 28 4 111 17 185 29 74 11 160 21 190 22 30 0 75 4 100 9 25 4 79 7 120
6 69 -1 75 -3 72 -21z"></path>
<path d="M5386 1125 c-10 -8 -16 -18 -15 -24 2 -5 14 -1 27 9 26 22 16 35 -12
15z"></path>
<path d="M5460 1130 c0 -5 7 -10 15 -10 8 0 15 -4 15 -10 0 -5 5 -10 12 -10 6
0 3 9 -7 20 -20 22 -35 26 -35 10z"></path>
<path d="M5414 1085 c-3 -7 -4 -24 -2 -37 4 -32 39 -31 48 2 6 21 3 28 -17 37
-19 9 -25 9 -29 -2z"></path>
<path d="M5522 1060 c0 -19 2 -27 5 -17 2 9 2 25 0 35 -3 9 -5 1 -5 -18z"></path>
<path d="M5366 1012 c-6 -11 31 -48 40 -39 3 3 -3 15 -14 27 -11 12 -23 17
-26 12z"></path>
<path d="M5470 995 c0 -8 7 -15 15 -15 8 0 15 7 15 15 0 8 -7 15 -15 15 -8 0
-15 -7 -15 -15z"></path>
</g>
</svg>