<?xml version="1.0" encoding="UTF-8" standalone="no"?>
<!DOCTYPE svg PUBLIC "-//W3C//DTD SVG 1.1//EN" "http://www.w3.org/Graphics/SVG/1.1/DTD/svg11.dtd">
<svg width="100%" height="100%" viewBox="0 0 600 347" version="1.1" xmlns="http://www.w3.org/2000/svg" xmlns:xlink="http://www.w3.org/1999/xlink" xml:space="preserve" xmlns:serif="http://www.serif.com/" style="fill-rule:evenodd;clip-rule:evenodd;stroke-linecap:round;stroke-linejoin:round;stroke-miterlimit:1.5;">
    <g id="SumnerCounty">
        <path d="M125.751,322.775L125.751,331.131L1.705,327.133L125.751,322.775" style="fill:rgb(139,75,27);stroke:rgb(139,75,27);stroke-width:0.55px;"/>
        <g transform="matrix(-1,0,0,1,597.456,0)">
            <path d="M125.751,322.775L125.751,331.131L1.705,327.133L125.751,322.775" style="fill:rgb(139,75,27);stroke:rgb(139,75,27);stroke-width:0.55px;"/>
        </g>
        <g transform="matrix(1.09084,0,0,1.09084,-27.6493,-5.66979)">
            <path d="M304.875,107.921C312.973,107.921 319.548,114.496 319.548,122.594C319.548,130.693 312.973,137.267 304.875,137.267C296.776,137.267 290.201,130.693 290.201,122.594C290.201,114.496 296.776,107.921 304.875,107.921ZM304.875,113.432C309.931,113.432 314.036,117.538 314.036,122.594C314.036,127.651 309.931,131.756 304.875,131.756C299.818,131.756 295.713,127.651 295.713,122.594C295.713,117.538 299.818,113.432 304.875,113.432Z" style="fill:rgb(105,125,56);"/>
        </g>
        <g transform="matrix(1,0,0,1,0,5)">
            <path d="M310.748,91.683C320.86,93.599 329.292,100.283 333.616,109.305L374.88,97.513L336.239,117.447C336.565,119.278 336.736,121.163 336.736,123.088C336.736,132.115 332.985,140.274 326.959,146.088L350.884,182.252L320.008,151.188C315.478,153.652 310.287,155.051 304.773,155.051C298.878,155.051 293.355,153.453 288.612,150.665L259.943,182.802L281.888,145.394C276.271,139.633 272.809,131.761 272.809,123.088C272.809,120.628 273.088,118.232 273.615,115.931L234.791,98.731L276.573,108.037C281.594,98.655 291.161,92.065 302.321,91.217L306.372,49.014L310.748,91.683ZM304.773,98.608C318.283,98.608 329.252,109.577 329.252,123.088C329.252,136.599 318.283,147.567 304.773,147.567C291.262,147.567 280.293,136.599 280.293,123.088C280.293,109.577 291.262,98.608 304.773,98.608Z" style="fill:rgb(105,125,56);stroke:rgb(105,125,56);stroke-width:0.55px;"/>
        </g>
        <g transform="matrix(1.1615,0,0,1.1615,-30.5299,6.09308)">
            <path d="M289.24,2.662L311.91,72.434L385.272,72.434L325.921,115.555L348.591,185.326L289.24,142.205L229.889,185.326L252.559,115.555L193.208,72.434L266.57,72.434L289.24,2.662Z" style="fill:none;stroke:rgb(105,125,56);stroke-width:8.18px;"/>
        </g>
        <g transform="matrix(1,0,0,1,0,5)">
            <path d="M90.611,209.278C135.375,195.041 183.742,188.482 234.282,186.554L230.225,195.31C183.198,197.628 136.697,202.461 90.611,209.278" style="fill:rgb(139,75,27);stroke:rgb(139,75,27);stroke-width:0.55px;"/>
        </g>
        <g transform="matrix(-1,0,0,1,610.892,5)">
            <path d="M90.611,209.278C135.375,195.041 183.742,188.482 234.282,186.554L230.225,195.31C183.198,197.628 136.697,202.461 90.611,209.278" style="fill:rgb(139,75,27);stroke:rgb(139,75,27);stroke-width:0.55px;"/>
        </g>
        <g transform="matrix(1.37477,0,0,1,-5.88728,-0.568171)">
            <text x="5.729px" y="291.668px" style="font-family:'BodoniSvtyTwoSCITCTT-Book', 'Bodoni 72 Smallcaps';font-size:71.394px;fill:rgb(139,75,27);">Sumner</text>
            <text x="223.123px" y="291.668px" style="font-family:'BodoniSvtyTwoSCITCTT-Book', 'Bodoni 72 Smallcaps';font-size:71.394px;fill:rgb(139,75,27);">County</text>
        </g>
        <g transform="matrix(1.20023,0,0,1,-26.9504,0)">
            <text x="133.705px" y="343.986px" style="font-family:'BodoniSvtyTwoSCITCTT-Book', 'Bodoni 72 Smallcaps';font-size:52.324px;fill:rgb(105,125,56);">TENNESSEE</text>
        </g>
    </g>
</svg>
