<?xml version="1.0" encoding="UTF-8" standalone="no"?>
<!DOCTYPE svg PUBLIC "-//W3C//DTD SVG 1.1//EN" "http://www.w3.org/Graphics/SVG/1.1/DTD/svg11.dtd">
<svg width="100%" height="100%" viewBox="0 0 288 221" version="1.1" xmlns="http://www.w3.org/2000/svg" xmlns:xlink="http://www.w3.org/1999/xlink" xml:space="preserve" xmlns:serif="http://www.serif.com/" style="fill-rule:evenodd;clip-rule:evenodd;stroke-linejoin:round;stroke-miterlimit:1.41421;">
    <g>
        <path d="M258.829,0.051L175.938,0.051C169.804,0.051 164.832,5.024 164.832,11.156C164.832,13.068 165.252,14.858 166.158,16.428L207.765,88.489C209.679,91.815 213.271,94.059 217.382,94.059C221.499,94.059 225.083,91.815 227.001,88.489L268.605,16.428C269.513,14.858 269.933,13.068 269.933,11.156C269.934,5.023 264.967,0.051 258.829,0.051Z" style="fill:url(#_Radial1);fill-rule:nonzero;"/>
        <g>
            <path d="M275.863,6.068C275.863,2.718 278.578,0 281.937,0C285.289,0 288,2.719 288,6.068C288,9.42 285.289,12.139 281.937,12.139C278.578,12.139 275.863,9.42 275.863,6.068ZM277.115,6.068C277.125,8.726 279.273,10.876 281.937,10.884C284.589,10.875 286.74,8.726 286.748,6.068C286.74,3.411 284.59,1.259 281.937,1.257C279.273,1.26 277.125,3.411 277.115,6.068Z" style="fill:rgb(146,39,143);fill-rule:nonzero;"/>
            <path d="M284.217,9.114L283.639,9.114C283.414,9.114 283.295,9.087 283.129,8.892L281.484,6.836L281.046,6.836L281.046,8.784C281.046,9.032 280.944,9.113 280.732,9.113L280.332,9.113C280.059,9.113 279.965,9.059 279.965,8.784L279.965,3.332C279.965,3.036 280.139,3.025 280.332,3.025L282.086,3.025C283.086,3.025 283.295,3.084 283.652,3.437C283.965,3.763 284.115,4.33 284.115,5.14C284.115,6.165 283.703,6.742 282.771,6.81L284.334,8.676C284.514,8.893 284.482,9.114 284.217,9.114ZM282.742,3.997C282.498,3.877 281.357,3.932 281.047,3.932L281.047,5.931L282.209,5.931C282.621,5.931 282.816,5.865 282.928,5.724C282.992,5.618 283.059,5.506 283.059,5.059C283.059,4.387 282.951,4.11 282.742,3.997Z" style="fill:rgb(146,39,143);fill-rule:nonzero;"/>
        </g>
        <path d="M129.777,102.357C129.777,102.367 129.787,102.374 129.787,102.378L129.787,102.369L129.777,102.357ZM202.809,103.747L202.352,102.957L150.9,13.837L150.002,12.282C145.639,4.723 137.273,0.05 127.98,0.05L85.549,0.05C80.816,0.05 76.978,3.89 76.978,8.62C76.978,10.091 77.318,11.501 78.001,12.68L129.786,102.378C132.155,106.409 133.515,111.1 133.515,116.113C133.515,120.976 132.234,125.537 129.997,129.484L84.969,207.485C84.285,208.657 83.948,210.069 83.948,211.542C83.948,216.276 87.784,220.11 92.518,220.11L136.055,220.11C145.344,220.11 153.713,215.44 158.076,207.881L158.972,206.322L202.271,131.324L203.078,129.928C205.285,126.102 206.305,121.725 206.305,117.075C206.305,112.23 205.063,107.653 202.809,103.747Z" style="fill:url(#_Radial2);fill-rule:nonzero;"/>
        <g>
            <path d="M83.18,139.976C82.387,139.976 81.596,140.303 80.871,140.433C78.435,140.961 75.732,141.492 72.834,141.492C71.252,141.492 69.799,141.16 68.877,140.765C66.836,139.844 66.639,137.273 66.703,133.973L82.782,133.973C85.089,133.973 85.55,133.582 85.55,129.958C85.55,125.735 85.157,121.587 83.114,118.624C81.203,115.921 77.906,114.535 72.438,114.535C66.639,114.535 63.01,116.051 61.037,118.887C58.99,121.784 58.396,125.673 58.396,131.469C58.396,138 59.32,142.287 62.091,144.855C64.263,146.897 67.826,147.945 72.771,147.945C75.601,147.945 79.488,147.683 82.713,147.089C84.76,146.761 85.088,145.711 85.088,144.191C85.088,143.465 85.088,142.673 84.961,142.017C84.76,141.159 84.167,139.976 83.18,139.976ZM66.703,127.581C66.703,122.774 67.695,121.128 72.437,121.128C76.919,121.128 77.507,122.837 77.507,126.923C77.507,126.923 77.507,127.708 77.507,128.177L66.703,128.177L66.703,127.581ZM43.155,114.535C39.592,114.535 36.432,115.718 34.253,116.774L34.253,104.583C34.253,103.332 33.73,101.745 31.687,101.745L28.722,101.745C26.812,101.745 25.823,102.339 25.823,104.583L25.823,144.459C25.823,146.037 26.349,147.088 28.198,147.088L31.686,147.088C33.729,147.088 34.252,145.968 34.252,144.124L34.252,129.02C34.252,124.295 35.231,122.682 39.885,122.682C44.291,122.682 44.873,124.362 44.873,128.371C44.873,128.371 44.873,129.15 44.873,129.603L44.855,129.603C44.865,130.238 44.871,130.96 44.871,131.771L44.871,144.123C44.871,146.102 45.525,147.087 47.239,147.087L50.739,147.087C52.774,147.087 53.305,145.967 53.305,144.123L53.305,123.896C53.306,119.606 51.261,114.535 43.155,114.535Z" style="fill:rgb(0,161,228);fill-rule:nonzero;"/>
            <path d="M18.977,122.438L11.862,122.438L11.862,135.687C11.862,138.783 11.995,139.97 12.258,140.496C12.455,140.831 12.789,141.025 13.244,141.025C15.094,141.025 17.129,140.038 18.65,140.038C20.101,140.038 20.433,141.158 20.433,141.879L20.433,144.252C20.433,146.691 19.769,147.354 17.663,147.549C15.554,147.746 14.104,147.878 11.925,147.878C4.936,147.878 3.425,145.307 3.425,137.465L3.425,122.439L1.58,122.439C0.332,122.439 0,121.584 0,120.531L0,117.695C0,116.045 0.656,115.52 1.777,115.52L3.425,115.52L3.425,110.18C3.425,107.941 4.347,107.279 6.259,107.279L9.226,107.279C11.268,107.279 11.861,108.926 11.861,110.18L11.861,115.52L18.322,115.52C19.769,115.52 20.562,115.718 20.562,117.63L20.562,119.933C20.563,122.173 20.165,122.438 18.977,122.438Z" style="fill:rgb(0,161,228);fill-rule:nonzero;"/>
        </g>
        <g>
            <path d="M174.128,199.336L179.181,207.887L183.956,210.643C184.618,211.028 184.753,211.524 184.378,212.161L183.837,213.122C183.407,213.854 183.013,214.067 182.239,213.618L177.641,210.964L167.16,210.841C166.867,210.847 166.588,210.806 166.387,210.689C165.838,210.373 165.973,209.769 166.182,209.412L166.871,208.217C167.254,207.551 167.627,207.471 168.158,207.479L175.337,207.624L171.636,201.397C171.368,200.948 171.271,200.592 171.657,199.926L172.223,198.951C172.557,198.369 173.018,198.283 173.442,198.529C173.708,198.68 173.981,199.078 174.128,199.336Z" style="fill:rgb(146,39,143);fill-rule:nonzero;"/>
            <path d="M196.514,191.153L195.975,192.083C195.592,192.747 195.118,192.798 194.467,192.485L185.091,187.842C185.48,188.303 186.036,188.922 186.468,189.406C188.144,191.381 189.968,193.412 191.039,194.775C191.469,195.318 191.623,195.765 191.203,196.49L190.871,197.072C190.445,197.805 189.995,197.876 189.309,197.773C187.596,197.523 184.895,197.005 182.346,196.539C181.7,196.432 180.91,196.213 180.317,196.109L189.022,201.913C189.624,202.319 189.815,202.757 189.434,203.415L188.893,204.351C188.495,205.039 188.026,205.386 187.241,204.847L174.964,196.244C174.204,195.717 174.396,195.178 174.706,194.642L175.411,193.421C175.768,192.802 176.151,192.605 176.755,192.687C179.276,193.046 183.693,193.906 187.081,194.498C184.872,191.865 181.915,188.469 180.345,186.465C179.974,185.985 179.954,185.559 180.314,184.938L181.017,183.715C181.326,183.184 181.699,182.746 182.533,183.137L196.118,189.473C196.977,189.874 196.912,190.46 196.514,191.153Z" style="fill:rgb(146,39,143);fill-rule:nonzero;"/>
            <path d="M203.475,179.501C202.989,180.499 202.717,181.071 202.125,182.095C201.648,182.921 201.008,183.882 200.344,184.564C197.803,187.218 194.742,186.367 190.897,184.148C184.369,180.377 184.339,177.607 186.839,173.275C187.433,172.252 187.794,171.72 188.413,170.804C189.005,169.931 189.362,169.812 189.862,170.101L190.593,170.523C191.388,170.982 191.577,171.273 191.167,171.976C190.692,172.804 190.349,173.14 189.67,174.318C189.256,175.029 188.658,176.22 188.582,176.92C188.404,178.561 190.136,179.619 192.69,181.088C195.202,182.541 197.231,183.541 198.7,181.815C198.999,181.454 199.405,180.858 199.802,180.17C200.482,178.992 200.605,178.525 201.075,177.701C201.483,176.992 201.827,177.013 202.63,177.476L203.364,177.898C203.852,178.179 203.936,178.554 203.475,179.501Z" style="fill:rgb(146,39,143);fill-rule:nonzero;"/>
            <path d="M211.623,164.979L210.918,166.2C210.52,166.888 210.074,166.897 209.537,166.794L206.193,166.173C205.664,167.142 205.257,167.851 204.687,168.827C204.152,169.759 203.677,170.585 203.195,171.366L205.3,173.772C205.786,174.317 206.015,174.688 205.577,175.438L204.989,176.465C204.551,177.223 204.288,177.215 203.958,177.022C203.823,176.95 203.593,176.725 203.37,176.446L193.292,164.557C192.745,163.91 192.573,163.488 193.05,162.669L193.573,161.759C194.046,160.933 194.503,160.868 195.309,161.009L211.028,163.687C211.167,163.707 211.301,163.728 211.419,163.794C211.969,164.113 211.828,164.622 211.623,164.979ZM197.152,164.442L201.363,169.251C201.66,168.735 201.984,168.124 202.355,167.483C202.753,166.79 203.046,166.335 203.418,165.692L197.152,164.442Z" style="fill:rgb(146,39,143);fill-rule:nonzero;"/>
        </g>
    </g>
    <defs>
        <radialGradient id="_Radial1" cx="0" cy="0" r="1" gradientUnits="userSpaceOnUse" gradientTransform="matrix(132.579,0,0,132.579,176.244,-24.077)"><stop offset="0" style="stop-color:rgb(198,22,141);stop-opacity:1"/><stop offset="0.58" style="stop-color:rgb(146,39,143);stop-opacity:1"/><stop offset="1" style="stop-color:rgb(92,45,145);stop-opacity:1"/></radialGradient>
        <radialGradient id="_Radial2" cx="0" cy="0" r="1" gradientUnits="userSpaceOnUse" gradientTransform="matrix(288.097,0,0,288.097,16.8359,-0.303942)"><stop offset="0" style="stop-color:rgb(0,174,239);stop-opacity:1"/><stop offset="0.58" style="stop-color:rgb(0,161,228);stop-opacity:1"/><stop offset="1" style="stop-color:rgb(0,97,175);stop-opacity:1"/></radialGradient>
    </defs>
</svg>
